<?xml version="1.0" standalone="no"?>
<!DOCTYPE svg PUBLIC "-//W3C//DTD SVG 20010904//EN"
 "http://www.w3.org/TR/2001/REC-SVG-20010904/DTD/svg10.dtd">
<svg version="1.0" xmlns="http://www.w3.org/2000/svg"
 width="500.000000pt" height="500.000000pt" viewBox="0 0 500.000000 500.000000"
 preserveAspectRatio="xMidYMid meet">

<g transform="translate(0.000000,500.000000) scale(0.100000,-0.100000)"
fill="#000000" stroke="none">
<path d="M1890 4576 c-135 -21 -197 -36 -314 -73 -136 -44 -225 -84 -341 -154
-448 -270 -735 -694 -827 -1219 -17 -98 -17 -412 0 -510 67 -386 223 -690 487
-955 147 -147 267 -234 450 -325 244 -121 432 -168 704 -177 368 -12 665 67
975 259 44 27 98 63 119 80 l39 31 626 -626 c437 -436 638 -631 664 -642 93
-38 195 5 239 100 23 49 24 94 4 143 -11 26 -206 227 -641 663 l-626 626 61
84 c80 111 181 309 225 440 171 513 96 1061 -205 1516 -89 133 -289 337 -429
436 -189 133 -443 241 -676 287 -139 27 -410 35 -534 16z m420 -381 c550 -84
982 -494 1105 -1048 25 -113 31 -361 11 -487 -109 -689 -747 -1187 -1437
-1120 -338 32 -632 175 -857 416 -182 194 -306 441 -347 694 -19 123 -19 331
1 451 95 567 555 1014 1129 1098 96 14 292 12 395 -4z"/>
</g>
</svg>
