<?xml version="1.0" standalone="no"?>
<!DOCTYPE svg PUBLIC "-//W3C//DTD SVG 20010904//EN"
 "http://www.w3.org/TR/2001/REC-SVG-20010904/DTD/svg10.dtd">
<svg version="1.0" xmlns="http://www.w3.org/2000/svg"
 width="500.000000pt" height="500.000000pt" viewBox="0 0 500.000000 500.000000"
 preserveAspectRatio="xMidYMid meet">

<g transform="translate(0.000000,500.000000) scale(0.100000,-0.100000)"
fill="#000000" stroke="none">
<path d="M2155 4596 c-229 -40 -423 -104 -618 -203 -603 -307 -1019 -873
-1133 -1541 -20 -118 -24 -178 -24 -339 0 -219 14 -340 61 -533 204 -830 903
-1459 1762 -1584 142 -21 443 -21 586 -1 465 67 884 277 1212 606 335 336 539
748 605 1224 22 161 15 470 -15 635 -97 546 -386 1017 -824 1344 -278 207
-591 338 -947 396 -182 29 -484 27 -665 -4z m-591 -913 c46 -23 89 -63 209
-192 188 -200 258 -318 259 -434 2 -71 -12 -100 -95 -210 -51 -68 -77 -141
-77 -219 0 -85 24 -148 91 -240 69 -93 319 -348 389 -395 61 -41 129 -63 198
-63 82 0 117 13 222 80 52 33 112 65 133 71 73 19 167 -10 271 -86 68 -48 304
-284 358 -356 82 -110 71 -187 -41 -296 -89 -86 -164 -135 -252 -164 -66 -21
-92 -24 -229 -24 -152 0 -157 1 -266 38 -293 98 -613 314 -908 612 -282 284
-447 509 -582 790 -102 214 -143 364 -144 526 0 192 62 342 195 472 122 118
178 137 269 90z m1004 -2 c506 -98 904 -446 1066 -932 36 -108 64 -246 68
-336 3 -64 -19 -93 -69 -93 -52 0 -65 24 -84 159 -47 320 -200 595 -446 798
-87 72 -231 156 -339 197 -91 35 -251 76 -298 76 -13 0 -35 9 -50 21 -44 35
-32 101 24 122 23 8 23 8 128 -12z m9 -455 c173 -37 308 -109 429 -230 130
-130 209 -288 236 -470 10 -75 10 -87 -5 -110 -14 -20 -26 -26 -56 -26 -53 0
-67 20 -85 128 -27 158 -91 280 -200 387 -98 95 -216 153 -390 191 -52 12 -84
53 -70 91 8 24 44 52 66 53 4 0 38 -7 75 -14z"/>
</g>
</svg>
