<?xml version="1.0" standalone="no"?>
<!DOCTYPE svg PUBLIC "-//W3C//DTD SVG 20010904//EN"
 "http://www.w3.org/TR/2001/REC-SVG-20010904/DTD/svg10.dtd">
<svg version="1.0" xmlns="http://www.w3.org/2000/svg"
 width="500.000000pt" height="500.000000pt" viewBox="0 0 500.000000 500.000000"
 preserveAspectRatio="xMidYMid meet">

<g transform="translate(0.000000,500.000000) scale(0.100000,-0.100000)"
fill="#000000" stroke="none">
<path d="M750 4151 c-66 -35 -72 -49 -130 -328 l-33 -152 -158 -3 c-171 -3
-185 -8 -232 -69 -42 -57 -37 -152 10 -203 41 -45 81 -56 198 -56 118 0 113 4
95 -80 -22 -100 -11 -90 -103 -90 -45 0 -97 -4 -116 -10 -101 -29 -147 -160
-87 -250 33 -50 70 -69 150 -77 l64 -6 -14 -61 c-8 -33 -16 -71 -19 -82 -4
-18 -14 -22 -58 -26 -94 -8 -149 -67 -149 -158 0 -26 7 -61 16 -78 16 -31 65
-73 99 -85 12 -5 17 -13 13 -24 -2 -10 -35 -160 -72 -334 -51 -242 -65 -325
-60 -354 10 -50 68 -109 121 -124 22 -6 118 -11 213 -11 l172 0 0 -81 c0 -163
54 -294 170 -410 55 -56 95 -86 150 -113 177 -86 346 -85 527 4 194 96 315
292 317 512 l0 88 676 0 676 0 -4 -62 c-13 -213 124 -445 318 -540 79 -39 192
-68 265 -68 134 0 292 63 396 158 117 108 177 241 186 410 l6 102 98 0 c54 0
110 5 126 11 42 15 92 69 103 109 18 69 170 1014 170 1059 0 35 -7 59 -29 92
-16 24 -179 231 -362 459 -234 291 -344 420 -369 433 -32 17 -60 18 -337 15
-167 -3 -303 -1 -303 3 0 5 14 72 32 151 39 180 40 224 6 276 -52 78 59 72
-1400 72 -1249 0 -1305 -1 -1338 -19z m2390 -314 c0 -2 -14 -64 -30 -138 -17
-73 -115 -524 -217 -1001 l-187 -868 -524 0 -524 0 -41 34 c-100 81 -232 126
-367 126 -132 0 -251 -40 -357 -120 l-52 -40 -151 0 c-86 0 -150 4 -150 9 0 5
23 116 50 246 28 130 50 238 50 241 0 2 274 4 610 4 687 0 667 -2 721 73 55
76 32 189 -47 234 l-39 23 -581 0 c-319 0 -583 2 -586 5 -3 3 2 40 11 83 l17
77 650 5 c706 5 676 3 731 62 73 78 49 207 -47 256 l-44 22 -609 0 -609 0 5
23 c3 12 11 50 18 84 l12 63 693 2 c681 3 693 3 721 24 35 25 73 98 73 140 0
48 -41 116 -86 141 l-39 23 -644 0 -644 0 7 46 c3 26 11 64 16 85 l11 39 1089
0 c600 0 1090 -1 1090 -3z m1084 -857 l288 -360 -61 -367 c-34 -203 -64 -380
-67 -395 l-6 -28 -100 0 -99 0 -64 45 c-116 83 -213 115 -351 115 -65 0 -112
-6 -160 -21 -74 -22 -187 -83 -218 -118 -18 -20 -29 -21 -173 -21 -107 0 -153
3 -153 11 0 13 197 943 206 972 5 15 24 17 207 17 275 1 309 10 356 103 31 62
23 122 -22 174 -51 58 -74 63 -283 63 -147 0 -185 3 -181 13 2 7 10 39 16 72
7 33 14 66 16 73 3 9 69 12 283 12 l278 0 288 -360z m-2848 -1355 c26 -17 63
-52 82 -78 30 -41 36 -59 40 -118 6 -85 -13 -140 -65 -194 -49 -51 -114 -78
-183 -78 -68 1 -115 20 -168 67 -138 125 -92 354 86 422 61 23 151 14 208 -21z
m2489 11 c159 -74 202 -262 91 -392 -122 -143 -357 -101 -428 76 -15 38 -13
141 4 181 57 131 209 194 333 135z"/>
</g>
</svg>
